<?xml version="1.0" encoding="UTF-8"?>
<svg xmlns="http://www.w3.org/2000/svg" xmlns:xlink="http://www.w3.org/1999/xlink" viewBox="0 0 408.77 461.75">
  <defs>
    <linearGradient id="linear-gradient" x1="115.77" y1="432.1" x2="190.37" y2="432.1" gradientUnits="userSpaceOnUse">
      <stop offset="0" stop-color="#878c4a"/>
      <stop offset=".15" stop-color="#71733f"/>
      <stop offset=".38" stop-color="#545331"/>
      <stop offset=".61" stop-color="#3f3b27"/>
      <stop offset=".82" stop-color="#322d21"/>
      <stop offset="1" stop-color="#2e291f"/>
    </linearGradient>
    <linearGradient id="linear-gradient-2" x1="204.38" x2="278.99" xlink:href="#linear-gradient"/>
    <linearGradient id="linear-gradient-3" x1="202.88" y1="432.1" x2="280.49" y2="432.1" gradientUnits="userSpaceOnUse">
      <stop offset=".2" stop-color="#878c4a"/>
      <stop offset=".72" stop-color="#4a482c"/>
      <stop offset="1" stop-color="#2e291f"/>
    </linearGradient>
    <linearGradient id="linear-gradient-4" x1="114.27" x2="191.87" xlink:href="#linear-gradient"/>
  </defs>
  <g isolation="isolate">
    <g id="Layer_1" data-name="Layer 1">
      <g>
        <g id="Wings_Flying" data-name="Wings Flying">
          <g id="Right_wing" data-name="Right wing">
            <path id="L2" d="M112.49,192.94s-63.24-58.03-87.31-98.31c0,0-8.26-14.31-8.02,3.97.24,18.28,21.47,58.03,30.68,64.65,0,0-36.34-25.17-43.42-32.86,0,0-5.43-2.15-2.6,10.72,2.83,12.87,26.19,42.81,42.95,47.58,0,0-34.92-11.13-36.81-7.42,0,0-6.61.53-1.65,8.21s20.77,18.28,20.77,18.28c0,0,13.45,9.8,27.85,9.8,0,0-30.91.79-36.1,1.85,0,0-6.14,2.65-.47,7.68,0,0,21.24,20.93,52.39,18.02,0,0-32.57,6.36-26.9,14.84s30.44,15.63,47.2,6.09c0,0-25.49,15.63-14.87,21.73,10.62,6.09,24.78,0,35.16-8.21,0,0-17.93,19.87,1.18,21.46,0,0,18.41-4.77,28.55-30.47,10.15-25.7,1.65-61.74,1.65-61.74l-30.21-15.9Z" fill="#169dd7" stroke="#055584" stroke-miterlimit="10" stroke-width="2"/>
            <path id="L_1" data-name="L 1" d="M112.49,192.94c-3.32-3.22-9.48-9.21-13.32-11.59-5.45-3.38-7.73-8.93-14.17-15.13-12.03-11.58-17.72.51-17.72.51,0,0,.57,14.36,19.09,26.79,0,0-18.4-8.1-21.57-3.43-3.18,4.67,15.08,23.58,27.68,22.08,0,0-24.82-2.79-21.57,5.79,3.25,8.57,29.02,9.22,29.02,9.22,0,0-25.39,4.29-14.51,11.79,10.88,7.5,21.38,3.22,21.38,3.22,0,0-12.98,7.72-4.2,14.36,0,0,11.64,1.07,26.73-6,15.08-7.07,14.32-31.72,14.32-31.72,0,0,1.14-13.1-12.61-14.81-7.05-.88-16.27-8.86-18.54-11.06Z" fill="#12ade1" stroke="#0c5685" stroke-miterlimit="10" stroke-width="2"/>
          </g>
          <g id="Left_Wing" data-name="Left Wing">
            <path id="Long_wing" data-name="Long wing" d="M296.28,194.76s63.24-58.03,87.31-98.31c0,0,8.26-14.31,8.02,3.97-.24,18.28-21.47,58.03-30.68,64.65,0,0,36.34-25.17,43.42-32.86,0,0,5.43-2.15,2.6,10.72-2.83,12.87-26.19,42.81-42.95,47.58,0,0,34.92-11.13,36.81-7.42,0,0,6.61.53,1.65,8.21-4.96,7.68-20.77,18.28-20.77,18.28,0,0-13.45,9.8-27.85,9.8,0,0,30.91.79,36.1,1.85,0,0,6.14,2.65.47,7.68,0,0-21.24,20.93-52.39,18.02,0,0,32.57,6.36,26.9,14.84s-30.44,15.63-47.2,6.09c0,0,25.49,15.63,14.87,21.73-10.62,6.09-24.78,0-35.16-8.21,0,0,17.93,19.87-1.18,21.46,0,0-18.41-4.77-28.55-30.47-10.15-25.7-1.65-61.74-1.65-61.74l30.21-15.9Z" fill="#169dd7" stroke="#055584" stroke-miterlimit="10" stroke-width="2"/>
            <path id="Short_Wing" data-name="Short Wing" d="M296.28,194.76c3.32-3.22,9.48-9.21,13.32-11.59,5.45-3.38,7.73-8.93,14.17-15.13,12.03-11.58,17.72.51,17.72.51,0,0-.57,14.36-19.09,26.79,0,0,18.4-8.1,21.57-3.43s-15.08,23.58-27.68,22.08c0,0,24.82-2.79,21.57,5.79-3.25,8.57-29.02,9.22-29.02,9.22,0,0,25.39,4.29,14.51,11.79-10.88,7.5-21.38,3.22-21.38,3.22,0,0,12.98,7.72,4.2,14.36,0,0-11.64,1.07-26.73-6-15.08-7.07-14.32-31.72-14.32-31.72,0,0-1.14-13.1,12.61-14.81,7.05-.88,16.27-8.86,18.54-11.06Z" fill="#12ade1" stroke="#0c5685" stroke-miterlimit="10" stroke-width="2"/>
          </g>
        </g>
        <path id="Right_Foot" data-name="Right Foot" d="M163.09,403.95h14.81l-1.28,22.98s20.43,8.68,11.49,15.32c-8.94,6.64-20.43,3.83-33.7,14.3-9.72,7.67-13.28,1.64-14.49-2.14-.46-1.44-.13-3.01.87-4.14,2.33-2.62,6.78-9.07,12.66-12.87,1.94-1.25.37-.36-1.48,1.03-13,9.78-36.52,26.86-36.2,6.29,0,0,3.74-16,45.79-16.77l1.53-24Z" fill="url(#linear-gradient)" mix-blend-mode="multiply" opacity=".8"/>
        <path id="Back_Wings" data-name="Back Wings" d="M143.94,380.53s-57.19,37.22-34.04,37.56,34.04-5.11,34.04-5.11c0,0,6.81-5.21,11.91-13.67,0,0-14.98,18.77-5.11,21.5,9.87,2.72,10.89,0,10.89,0l1.7-19.54h14.3v22.6s16.6,3.06,19.87-17.36v-21.11s-7.28,43.23,18.94,36.77v-23.83l17.02-1.36,1.36,22.47s6.81,11.23,11.57-.68c0,0,6.47-1.7-6.47-21.11,0,0,6.67,22.13,27.5,20.77,0,0,6.2,2.72,19.82-.34,13.62-3.06-4.77-19.06-4.77-19.06l-31.66-18.5h-106.89Z" fill="#0caedf" stroke="#18355f" stroke-miterlimit="10" stroke-width="4"/>
        <path id="Chest" d="M128.37,225.74s-30.89,61.02-8.94,125.36c0,0,7.91,23.23,29.87,38.81,0,0-3.32,13.79,12.51,14.04,0,0,13.28,2.55,22.21-2.3,0,0,5.62-5.87,2.55-13.02l-9.96-2.04s25.02,5.87,41.11.26c0,0-12.51,1.02-7.91,9.19,0,0,.51,12.51,24.26,7.4,0,0,11.74-1.28,12-10.98,0,0,.02-6.55,3.85-8.33,0,0-10.69,6.98-14.57,8.08,0,0,24.77-8.43,37.28-35.74,0,0,31.15-57.19-4.85-130.72,0,0-87.06,36.51-139.4,0Z" fill="#f7921f" stroke="#a04523" stroke-miterlimit="10" stroke-width="2"/>
        <path id="Left_Foot" data-name="Left Foot" d="M231.67,403.95h-14.81s1.28,22.98,1.28,22.98c0,0-20.43,8.68-11.49,15.32,8.94,6.64,20.43,3.83,33.7,14.3,9.72,7.67,13.28,1.64,14.49-2.14.46-1.44.13-3.01-.87-4.14-2.33-2.62-6.78-9.07-12.66-12.87-1.94-1.25-.37-.36,1.48,1.03,13,9.78,36.52,26.86,36.2,6.29,0,0-3.74-16-45.79-16.77l-1.53-24Z" fill="url(#linear-gradient-2)" mix-blend-mode="multiply" opacity=".8"/>
        <path id="Face" d="M130.16,225.48s-54.64-18.38-28.09-74.55c0,0-14.3-86.3,82.72-100.6,0,0,118.47-13.28,108.26,99.57,0,0,29.62,45.96-27.57,75.57,0,0,15.83,14.3,13.79,42.89,0,0-2.21,6.13-11.74,1.7s-17.53-26.89-17.53-26.89c0,0,16,27.23.34,46.3.17.51-18.55,26.04-24-20.09,0,0,5.11,28.26-13.96,47.32s-32.34-5.62-32.34-5.62c0,0-13.62-14.13-11.23-42.04,0,0-4.94,38.13-19.74,24.68s-9.7-36.26-3.4-49.87c0,0-23.83,42.89-29.79,20.6,0,0-4.43-20.43,14.3-38.98Z" fill="#fece17" stroke="#a04523" stroke-miterlimit="10" stroke-width="3"/>
        <path id="Right_Eyebrow" data-name="Right Eyebrow" d="M131.18,89.31s10.38-17.02,24.17-11.57c0,0,3.91,2.38,0,1.87s-14.13.85-24.17,9.7Z" fill="#231f20"/>
        <path id="Left_Eyebrow" data-name="Left Eyebrow" d="M264.4,89.31s-10.38-17.02-24.17-11.57c0,0-3.91,2.38,0,1.87s14.13.85,24.17,9.7Z" fill="#231f20"/>
        <ellipse id="Right_Eye" data-name="Right Eye" cx="143.56" cy="125.92" rx="30.25" ry="24.43" transform="translate(8.94 261.35) rotate(-86.43)" fill="#fff" stroke="#231f20" stroke-miterlimit="10" stroke-width="3"/>
        <ellipse id="Left_Eye" data-name="Left Eye" cx="251.64" cy="125.92" rx="24.43" ry="30.25" transform="translate(-10.89 24.66) rotate(-5.49)" fill="#fff" stroke="#231f20" stroke-miterlimit="10" stroke-width="3"/>
        <ellipse id="Right_Pubble" data-name="Right Pubble" cx="152.31" cy="126.22" rx="16.57" ry="12.09" transform="translate(16.84 270.36) rotate(-86.43)" fill="#231f20"/>
        <ellipse id="Left_Pubble" data-name="Left Pubble" cx="242.71" cy="125.68" rx="12.09" ry="16.57" transform="translate(-10.91 23.8) rotate(-5.49)" fill="#231f20"/>
        <path d="M161.69,70.25s-11.62-22.32,28.13-23.69c0,0-27.88,3.64-14.86-18.22,0,0-1.66-17.77,35.65-26.88,0,0-25.69,8.66,4.28,46.92,0,0-1.22,16.4-15.9,20.04s-6.12-22.78-37.31,1.82Z" fill="#5aba47" stroke="#a04523" stroke-miterlimit="10" stroke-width="3"/>
        <path id="Left_Foot-2" data-name="Left Foot" d="M231.67,403.95h-14.81s1.28,22.98,1.28,22.98c0,0-20.43,8.68-11.49,15.32,8.94,6.64,20.43,3.83,33.7,14.3,9.72,7.67,13.28,1.64,14.49-2.14.46-1.44.13-3.01-.87-4.14-2.33-2.62-6.78-9.07-12.66-12.87-1.94-1.25-.37-.36,1.48,1.03,13,9.78,36.52,26.86,36.2,6.29,0,0-3.74-16-45.79-16.77l-1.53-24Z" fill="none" mix-blend-mode="multiply" opacity=".5" stroke="url(#linear-gradient-3)" stroke-miterlimit="10" stroke-width="3"/>
        <path id="Right_Foot-2" data-name="Right Foot" d="M163.09,403.95h14.81l-1.28,22.98s20.43,8.68,11.49,15.32c-8.94,6.64-20.43,3.83-33.7,14.3-9.72,7.67-13.28,1.64-14.49-2.14-.46-1.44-.13-3.01.87-4.14,2.33-2.62,6.78-9.07,12.66-12.87,1.94-1.25.37-.36-1.48,1.03-13,9.78-36.52,26.86-36.2,6.29,0,0,3.74-16,45.79-16.77l1.53-24Z" fill="none" mix-blend-mode="multiply" opacity=".8" stroke="url(#linear-gradient-4)" stroke-miterlimit="10" stroke-width="3"/>
        <g>
          <path d="M156.42,150.2s-24.35,6.17-18.02,25.65c6.33,19.48,38.32,41.73,38.32,41.73,0,0,17.37,10.23,37.5,0,20.13-10.23,35.07-31.42,35.07-31.42,0,0,5.03-7.06,5.2-15.99.16-8.93-3.25-11.53-3.25-11.53,0,0-11.85-7.79-16.88-6.98l-77.93-1.46Z" fill="#df2727" stroke="#7e1518" stroke-miterlimit="10" stroke-width="2"/>
          <path d="M246.48,166.6c-2.76-1.46-8.28,4.71-15.91,21.92-7.63,17.21-21.59,22.73-21.59,22.73,0,0-5.03,3.57-20.46.81s-39.78-45.46-39.78-45.46c0,0-3.78-4.48-5.49-.21" fill="none" stroke="#7e1518" stroke-miterlimit="10" stroke-width="2"/>
          <path d="M175.23,201.82s-21.23-20.17-21.23-29.25,8.42,1.34,8.42,1.34c0,0,10.4,12.1,20.3,13.45,0,0,4.62,4.88,10.07,7.4s11.72-3.03,11.72-3.03c0,0,12.54-12.27,16.17-11.77s9.9-8.24,9.9-8.24c0,0,6.93-.34,5.78,4.37-1.16,4.71-14.51,24.56-19.29,28.09,0,0-6.29-10.78-15.2-5.9s-15.73-.11-15.73-.11c0,0-5.94-2.59-10.89,3.63Z" fill="#88181a"/>
          <path d="M174.6,201.02s2.11-8.6,20.29-.97c0,0,9.65-4.62,14.2-3.16s8.14,3.74,7.49,7.31c0,0-10.81,8.24-18.76,8.02-8.12-.22-16.4-2.27-23.22-11.2Z" fill="#e53933"/>
          <path d="M157.39,150.04s7.79-35.88,25.33-43.67c17.53-7.79,29.06,2.6,29.06,2.6,0,0,13.31,11.36,18.83,26.95,5.52,15.59,2.11,28.09,2.11,28.09,0,0-1.14,12.66-14.77,17.86,0,0-11.04,6.33-15.75,13.48,0,0-6.01,7.63-13.15,0s-8.44-7.79-20.29-13.8-11.36-31.5-11.36-31.5Z" fill="#df2727" stroke="#7e1518" stroke-miterlimit="10" stroke-width="2"/>
        </g>
      </g>
    </g>
  </g>
</svg>